<?xml version="1.0" encoding="utf-8"?>
<!-- Generator: Adobe Illustrator 16.0.4, SVG Export Plug-In . SVG Version: 6.00 Build 0)  -->
<!DOCTYPE svg PUBLIC "-//W3C//DTD SVG 1.1//EN" "http://www.w3.org/Graphics/SVG/1.1/DTD/svg11.dtd" [
	<!ENTITY ns_flows "http://ns.adobe.com/Flows/1.0/">
	<!ENTITY ns_extend "http://ns.adobe.com/Extensibility/1.0/">
	<!ENTITY ns_ai "http://ns.adobe.com/AdobeIllustrator/10.0/">
	<!ENTITY ns_graphs "http://ns.adobe.com/Graphs/1.0/">
]>
<svg version="1.1" xmlns:x="&ns_extend;" xmlns:i="&ns_ai;" xmlns:graph="&ns_graphs;"
	 xmlns="http://www.w3.org/2000/svg" xmlns:xlink="http://www.w3.org/1999/xlink" xmlns:a="http://ns.adobe.com/AdobeSVGViewerExtensions/3.0/"
	 x="0px" y="0px" width="792px" height="791.837px" viewBox="0 0 792 791.837" enable-background="new 0 0 792 791.837"
	 xml:space="preserve">
<g id="Wordpress_Sun">
	<circle opacity="0.06" fill="#FBB040" cx="445.999" cy="244.028" r="144.278"/>
	<circle opacity="0.1" fill="#F15A29" cx="446" cy="244.028" r="99.125"/>
	<circle fill="#D54F27" cx="446" cy="244.028" r="73.125"/>
	<path fill="#FFFFFF" d="M446,188.624c-29.646,0-53.765,24.117-53.765,53.763c0,29.646,24.119,53.766,53.765,53.766
		c29.645,0,53.765-24.12,53.765-53.766C499.765,212.741,475.645,188.624,446,188.624z M397.662,242.387
		c0-7.008,1.503-13.661,4.186-19.673l23.058,63.176C408.779,278.056,397.662,261.52,397.662,242.387z M446,290.728
		c-4.744,0-9.324-0.695-13.656-1.969l14.505-42.144l14.856,40.708c0.099,0.238,0.219,0.458,0.347,0.666
		C457.027,289.756,451.629,290.728,446,290.728z M452.661,219.723c2.91-0.153,5.532-0.459,5.532-0.459
		c2.604-0.308,2.298-4.136-0.308-3.984c0,0-7.83,0.615-12.884,0.615c-4.75,0-12.731-0.615-12.731-0.615
		c-2.606-0.152-2.912,3.83-0.307,3.984c0,0,2.466,0.306,5.07,0.459l7.53,20.635l-10.58,31.725l-17.602-52.36
		c2.912-0.153,5.532-0.459,5.532-0.459c2.603-0.308,2.295-4.136-0.31-3.984c0,0-7.828,0.615-12.883,0.615
		c-0.907,0-1.977-0.022-3.111-0.059c8.644-13.121,23.5-21.787,40.389-21.787c12.584,0,24.042,4.812,32.642,12.691
		c-0.208-0.013-0.412-0.04-0.626-0.04c-4.748,0-8.118,4.137-8.118,8.579c0,3.984,2.3,7.354,4.749,11.338
		c1.838,3.219,3.985,7.355,3.985,13.331c0,4.137-1.591,8.938-3.679,15.626l-4.822,16.109L452.661,219.723z M488.417,219.197
		c3.772,6.885,5.92,14.786,5.92,23.19c0,17.833-9.665,33.402-24.035,41.782l14.765-42.688c2.757-6.896,3.675-12.41,3.675-17.313
		C488.741,222.388,488.625,220.736,488.417,219.197z"/>
</g>
<g id="Tierra__x2B__Lago">
	<path fill="#633628" d="M168,478c9.5-2.5,28.5,16.5,35.5,21s10-1.5,17,0s18.5,23.5,32,22s13-8,22.5-5.5s34.484,15.574,44.906,9.555
		c23.76-13.723,28.708,10.396,44.094,4.209c14.333-5.764,27.068,0,56.535,20.736C450.356,570.985,485,521.5,501,517
		s23.625,6.375,34,4.5c11.809-2.134,25.5-34.5,36-33.5s10.531-17.694,33-22.375L615.007,435H168V478z"/>
	<path fill="#82452C" d="M90.062,417.732c0,0,3.563,21.893,19.938,36.268c4.587,4.026,11-5,18.5,0s39.5,34,50.5,35s29-12.5,42-7
		s19.5,15.5,38.5,17s56.47-17.5,69.735-11.5s36.265,26,49.265,32s30.5-11.5,45-7.5s32.5,17,53,16s58-38.5,70.5-42.5s24,3.5,37,0.5
		s15-17.139,25-15.819s16.843,3,32,3c33.75,0,52.24-58.256,52.24-58.256S694,405.5,678,404.5s-562,0-562,0
		S90.062,399.232,90.062,417.732z"/>
	<path fill="#A35330" d="M498.585,481.091c0,0-32.534,0.902-43.034,8.902s-13.75,11.5-20.75,11.25s-23.75-5.5-31.5-3.25
		s-24.5,14.75-33.75,10.5s-29.5-25.805-50-27.402s-22.25,4.932-28,1.167s-9-9.515-23.75-8.765s-14,7.25-24,2.5s-15-11.25-20-11.25
		s-10.5,5-20.5,3s-21.422-17.066-39.086-22.783v-11.967h334.37V481.091z"/>
	<path fill="#A35330" d="M322.216,481.091c0,0,32.534,0.902,43.034,8.902s13.75,11.5,20.75,11.25s23.75-5.5,31.5-3.25
		s24.5,14.75,33.75,10.5s29.5-25.805,50-27.402s22.25,4.932,28,1.167s9-9.515,23.75-8.765s14,7.25,24,2.5s15-11.25,20-11.25
		s10.5,5,20.5,3s21.422-17.066,39.086-22.783v-11.967h-334.37V481.091z"/>
	<path fill="#A35330" d="M693.24,414.925c0,34.566-135.092,62.59-301.74,62.59c-166.646,0-301.74-28.023-301.74-62.59
		c0-1.665-0.399-8.087,0.216-9.72c12.16-32.255,142.905-52.871,301.524-52.871c157.982,0,288.605,21.754,301.66,53.824
		C693.876,407.917,693.24,413.127,693.24,414.925z"/>
	<ellipse fill="#BF6F4C" cx="391.5" cy="407.591" rx="301.74" ry="62.59"/>
	<path fill="#37C0E9" d="M679.552,400.677c0,11.283-9.182,15.505-53.447,15.505c-20.429,0-134.861-0.104-170.42,3.012
		c-45.026,3.941,81.458,17.912,34.198,29.033c-16.415,3.863-63.674,2.793-98.014,2.793c-164.406,0-287.683-22.539-287.683-50.343
		S243,350.333,391.869,350.333C529,350.333,679.552,372.873,679.552,400.677z"/>
	<circle fill="#633628" cx="507.973" cy="532.527" r="4.473"/>
	<circle fill="#82452C" cx="420.207" cy="523.5" r="4.473"/>
	<circle fill="#633628" cx="338.764" cy="529.264" r="3.264"/>
	<circle fill="#633628" cx="277.25" cy="519.75" r="3.75"/>
	<circle fill="#82452C" cx="435.902" cy="534.764" r="2.236"/>
	<circle fill="#82452C" cx="420.549" cy="555.215" r="2.549"/>
	<circle fill="#8A3F2E" cx="478.451" cy="507.583" r="2.549"/>
	<circle fill="#82452C" cx="435.902" cy="494.332" r="2.549"/>
	<circle fill="#82452C" cx="352.656" cy="482.173" r="3.893"/>
	<circle fill="#82452C" cx="492.97" cy="536.097" r="3.569"/>
	<circle fill="#82452C" cx="501.367" cy="561.832" r="1.5"/>
	<circle fill="#82452C" cx="565.166" cy="509.499" r="4.5"/>
	<circle fill="#82452C" cx="580.666" cy="492.332" r="2"/>
	<circle fill="#82452C" cx="292.513" cy="515.18" r="3.848"/>
	<circle fill="#82452C" cx="295.179" cy="539.666" r="2.666"/>
	<circle fill="#82452C" cx="393.935" cy="573.73" r="2.065"/>
	<circle fill="#82452C" cx="210.166" cy="491.166" r="3.166"/>
	<circle fill="#82452C" cx="201" cy="503" r="2"/>
	<circle fill="#82452C" cx="221" cy="521" r="5"/>
	<circle fill="#82452C" cx="243.667" cy="504.999" r="2.584"/>
</g>
<g id="Volcanes">
	<path fill="#6D9347" d="M324.122,201.324c-20.216,0-138.265,117.297-175.568,179.059c0,0,66.58,14.531,175.657,13.356
		c25.012,0.27,48.206,0.597,68.458,0.11c27.433-0.659,49.816-2.458,67.263-4.624c25.842-3.207,39.936-8.843,39.936-8.843
		C462.563,318.621,344.338,201.324,324.122,201.324z"/>
	<path fill="#C1D156" d="M325.5,206.5c0,0,67.169,43.75,125.427,117.672c0,0-15.79,18.828-30.858,34.828S396,381.25,368.5,358.5
		c0,0-29.7-22-37.1-45.5s2.6-28.5,13.1-30.5s10.5-21.523-1.5-33.012S316.71,215.5,325.5,206.5z"/>
	<path fill="#C9EBFA" d="M471.709,313.193h-9.297c0,0-8.203-21.693-31.627-21.693c-17.41,0-25.613,13.49-25.613,13.49
		s-14.036-6.38-22.239,7.474h-8.568c0,0-1.154,0.243-1.154,1.094c0,0.851,1.154,1.276,1.154,1.276h97.344
		c0.453,0,0.82-0.367,0.82-0.82S472.162,313.193,471.709,313.193z"/>
	<path fill="#6D9347" d="M512.146,272.488c-12.747,0-95.955,82.416-119.478,121.361c0,0,50.753,0.712,119.533-0.03
		c68.781,0.742,110.765-8.421,110.765-8.421C599.444,346.453,524.895,272.488,512.146,272.488z"/>
	<path fill="#C1D156" d="M510.534,277.405c0,0-53.398,39.386-109.466,111.995c0,0,28.604-0.561,78.504,0s-1.838-18.642-4.922-27.613
		c-3.083-8.971,9.252-27.473,21.867-37.846S530.719,298.71,510.534,277.405z"/>
	<g>
		<path fill="#C9EBFA" d="M326.423,424.574c0,1.891-1.532,3.423-3.423,3.423h-15.952c-1.89,0-3.423-1.532-3.423-3.423l0,0
			c0-1.89,1.533-3.423,3.423-3.423H323C324.891,421.151,326.423,422.685,326.423,424.574L326.423,424.574z"/>
		<path fill="#C9EBFA" d="M300.256,424.574c0,1.891-1.532,3.423-3.423,3.423h-1.952c-1.89,0-3.423-1.532-3.423-3.423l0,0
			c0-1.89,1.533-3.423,3.423-3.423h1.952C298.724,421.151,300.256,422.685,300.256,424.574L300.256,424.574z"/>
		<path fill="#C9EBFA" d="M406.477,438.423c0,1.891-1.531,3.423-3.422,3.423h-1.953c-1.89,0-3.422-1.532-3.422-3.423l0,0
			c0-1.89,1.532-3.423,3.422-3.423h1.953C404.945,435,406.477,436.533,406.477,438.423L406.477,438.423z"/>
		<path fill="#C9EBFA" d="M446.242,393.744H312.088c-1.89,0-3.423,1.533-3.423,3.423c0,1.891,1.533,3.423,3.423,3.423h26.334h0.154
			c1.891,0,3.423,1.533,3.423,3.423c0,1.891-1.532,3.423-3.423,3.423h-10.154h-29.375c-1.89,0-3.423,1.533-3.423,3.423
			c0,1.891,1.533,3.423,3.423,3.423h45.481c-0.083,0-0.161,0.019-0.242,0.024h10.29c1.891,0,3.423,1.533,3.423,3.423
			c0,1.771-1.352,3.204-3.076,3.381h-20.349c-1.89,0-3.423,1.533-3.423,3.423c0,1.891,1.533,3.423,3.423,3.423l6.139-0.018
			c1.891,0,3.333,1.575,3.333,3.465c0,1.891-1.532,3.423-3.423,3.423h-6.291c-1.775,0.127-3.181,1.592-3.181,3.398
			c0,1.891,1.533,3.423,3.423,3.423h54.154c1.891,0,3.424-1.532,3.424-3.423c0-1.89-1.533-3.423-3.424-3.423h-21.926
			c-1.891,0-3.423-1.532-3.423-3.423c0-1.89,1.532-3.423,3.423-3.423h34.928h6.999c1.891,0,3.423-1.532,3.423-3.423
			c0-1.89-1.532-3.423-3.423-3.423h-13.148c-1.808-0.093-3.249-1.574-3.249-3.405c0-1.89,1.532-3.423,3.423-3.423h27.446
			c1.891,0,3.423-1.532,3.423-3.423c0-1.89-1.532-3.423-3.423-3.423h-30.625h-4.927c-1.891,0-3.424-1.532-3.424-3.423
			c0-1.89,1.533-3.423,3.424-3.423h4.927h53.665c1.891,0,3.424-1.532,3.424-3.423C449.666,395.277,448.133,393.744,446.242,393.744z
			"/>
	</g>
	<path fill="#C9EBFA" d="M159.417,271.334h154.75c0,0-3.75-7.5-10.75-7.5s-10.5,5.25-10.5,5.25h-12.75c0,0-11.25-29.75-43.375-29.75
		c-23.875,0-35.125,18.5-35.125,18.5s-19.25-8.75-30.5,10.25h-11.75c0,0-1.583,0.333-1.583,1.5S159.417,271.334,159.417,271.334z"/>
</g>
<g id="Lettering">
	<g>
		<path fill="#00749A" d="M221.659,581.392l-15.265,50.404h-11.377l-7.489-23.258c-1.584-4.969-2.16-8.497-2.232-8.497h-0.072
			c-0.072,0-0.648,3.528-2.232,8.497l-7.489,23.258h-11.377l-15.266-50.404h12.889l6.193,23.762
			c1.224,4.753,1.944,8.137,2.016,8.137h0.072c0.072,0,0.864-3.384,2.592-8.137l6.985-19.01h11.305l6.985,19.01
			c1.728,4.753,2.52,8.137,2.592,8.137h0.072c0.072,0,0.792-3.384,2.016-8.137l6.192-23.762H221.659z"/>
		<path fill="#00749A" d="M256.792,580.384c14.473,0,26.21,11.017,26.21,26.21s-11.737,26.21-26.21,26.21
			c-14.474,0-26.139-11.017-26.139-26.21S242.318,580.384,256.792,580.384z M256.792,620.851c8.208,0,13.609-5.832,13.609-14.257
			c0-8.497-5.4-14.257-13.609-14.257c-8.137,0-13.538,5.76-13.538,14.257C243.254,615.019,248.655,620.851,256.792,620.851z"/>
		<path fill="#00749A" d="M325.408,631.796l-9.361-16.417h-6.193v16.417h-12.097v-50.404h18.793
			c12.673,0,20.306,6.912,20.306,17.281c0,6.769-3.24,11.81-9.073,14.546l11.161,18.577H325.408z M309.854,604.649h8.353
			c4.32,0,6.048-3.24,6.048-5.977s-1.728-5.977-6.048-5.977h-8.353V604.649z"/>
		<path fill="#00749A" d="M375.951,581.392c14.401,0,26.067,10.297,26.067,25.418s-11.666,24.986-26.067,24.986h-22.034v-50.404
			H375.951z M375.951,620.491c7.201,0,13.465-5.041,13.465-13.682s-6.265-14.113-13.465-14.113h-9.937v27.795H375.951z"/>
		<path fill="#00749A" d="M452.055,597.017c-2.305-2.88-6.625-4.68-10.584-4.68c-8.354,0-13.538,5.977-13.538,14.257
			c0,8.713,5.688,14.113,13.538,14.113c4.824,0,9.432-2.448,11.521-5.904l12.241,3.168c-4.177,8.929-13.178,14.833-23.762,14.833
			c-14.475,0-26.139-11.017-26.139-26.21s11.664-26.21,26.139-26.21c9.936,0,18.434,5.328,22.897,13.393L452.055,597.017z"/>
		<path fill="#00749A" d="M507.279,623.875h-19.945l-2.881,7.921H471.42l20.162-50.404h11.449l20.161,50.404h-13.033
			L507.279,623.875z M503.391,613.29l-3.6-9.793c-1.08-2.88-2.377-7.416-2.449-7.416h-0.072c-0.071,0-1.367,4.536-2.447,7.416
			l-3.601,9.793H503.391z"/>
		<path fill="#00749A" d="M584.897,581.392v50.404h-11.882v-12.313c0-11.952,0.433-17.857,0.36-17.857h-0.072
			c-0.071,0-4.104,6.913-4.536,7.633l-5.904,10.081h-6.265l-5.904-10.081c-0.433-0.72-4.465-7.633-4.536-7.633h-0.072
			c-0.072,0,0.359,5.905,0.359,17.857v12.313h-11.881v-50.404h11.377l9.434,15.266c3.672,5.977,4.248,7.272,4.32,7.272h0.071
			c0.072,0,0.648-1.296,4.32-7.272l9.434-15.266H584.897z"/>
		<path fill="#00749A" d="M622.55,581.392c12.386,0,19.874,6.48,19.874,17.281s-7.488,17.281-19.874,17.281h-7.128v15.842h-12.098
			v-50.404H622.55z M622.334,604.649c4.681,0,7.489-2.232,7.489-5.977s-2.809-5.977-7.489-5.977h-6.912v11.953H622.334z"/>
	</g>
	<g>
		<path fill="#474647" d="M232.831,657.07v26.596h-3.078v-11.968c0-4.104,0.19-9.385,0.152-9.385h-0.038
			c-0.038,0-1.368,2.432-2.318,4.027l-6.193,10.79h-1.634l-6.193-10.79c-0.95-1.596-2.28-4.027-2.318-4.027h-0.038
			c-0.038,0,0.152,5.281,0.152,9.385v11.968h-3.077V657.07h2.925l6.611,11.246c2.28,3.875,2.698,4.939,2.736,4.939h0.038
			c0.038,0,0.456-1.064,2.735-4.939l6.611-11.246H232.831z"/>
		<path fill="#474647" d="M263.879,676.713h-13.336l-2.964,6.953h-3.343l11.55-26.596h2.85l11.55,26.596h-3.344L263.879,676.713z
			 M262.701,673.939l-4.218-9.879c-0.57-1.367-1.216-3.229-1.254-3.229h-0.038c-0.038,0-0.684,1.862-1.254,3.229l-4.217,9.879
			H262.701z"/>
		<path fill="#474647" d="M303.398,657.07v26.596h-2.926l-11.816-15.92c-2.28-3.153-3.952-5.585-3.99-5.585h-0.038
			c-0.038,0,0.076,3.306,0.076,7.561v13.944h-3.115V657.07h2.925l11.816,15.881c2.014,2.698,3.951,5.472,3.989,5.472h0.038
			c0.038,0-0.076-3.571-0.076-7.371V657.07H303.398z"/>
		<path fill="#474647" d="M334.445,676.713h-13.336l-2.964,6.953h-3.343l11.55-26.596h2.85l11.55,26.596h-3.344L334.445,676.713z
			 M333.268,673.939l-4.218-9.879c-0.57-1.367-1.216-3.229-1.254-3.229h-0.038c-0.038,0-0.684,1.862-1.254,3.229l-4.217,9.879
			H333.268z"/>
		<path fill="#474647" d="M372.673,679.715c-1.254,1.558-4.598,4.483-9.727,4.483c-7.637,0-13.792-5.813-13.792-13.83
			s6.155-13.83,13.792-13.83c5.471,0.114,9.727,2.812,12.082,6.991l-3.153,0.798c-1.824-2.926-5.206-4.75-8.929-4.75
			c-6.079,0-10.601,4.37-10.601,10.791c0,6.459,4.673,10.79,10.714,10.79c5.205,0,8.625-3.077,9.651-5.357v-3.305h-8.131v-2.584
			h10.828v13.792h-2.735c0-3.115,0.038-3.951,0.038-3.989H372.673z"/>
		<path fill="#474647" d="M409.191,657.07v15.577c0,7.523-3.989,11.589-10.942,11.589c-6.953,0-10.904-4.065-10.904-11.589V657.07
			h3.116v15.615c0,5.775,2.66,8.625,7.789,8.625c5.167,0,7.827-2.85,7.827-8.625V657.07H409.191z"/>
		<path fill="#474647" d="M438.147,676.713h-13.336l-2.964,6.953h-3.343l11.55-26.596h2.85l11.551,26.596h-3.344L438.147,676.713z
			 M436.97,673.939l-4.217-9.879c-0.57-1.367-1.216-3.229-1.254-3.229h-0.038c-0.038,0-0.684,1.862-1.254,3.229l-4.217,9.879H436.97
			z"/>
		<path fill="#474647" d="M471.553,663.605c1.367-4.674,4.939-7.067,9.688-7.067c5.319,0,9.005,3.533,9.005,8.32
			c0,5.396-3.99,8.018-7.067,10.373c-3.191,2.508-7.257,5.585-7.257,5.585l0.038,0.038c0.038,0,1.861-0.114,4.901-0.114h9.347v2.926
			h-18.466v-2.546c4.027-3.381,8.093-6.763,12.12-10.145c1.824-1.52,3.229-3.647,3.229-6.079c0-3.229-2.432-5.585-5.927-5.585
			c-3.647,0-5.889,2.052-6.725,5.092L471.553,663.605z"/>
		<path fill="#474647" d="M524.863,670.368c0,7.371-4.369,13.83-11.969,13.83c-7.637,0-11.968-6.459-11.968-13.83
			s4.331-13.83,11.968-13.83C520.494,656.538,524.863,662.997,524.863,670.368z M504.118,670.368c0,5.775,2.888,10.79,8.776,10.79
			c5.852,0,8.777-5.015,8.777-10.79s-2.926-10.791-8.777-10.791C507.006,659.577,504.118,664.593,504.118,670.368z"/>
		<path fill="#474647" d="M545.46,657.07v26.596h-3.115v-18.047c0-1.862,0.151-4.028,0.114-4.028h-0.038
			c-0.038,0-1.33,1.482-2.052,2.204l-3.382,3.344l-1.938-1.9l8.207-8.168H545.46z"/>
		<path fill="#474647" d="M576.847,657.07v1.899l-13.868,24.696h-3.344l11.171-19.719c1.14-2.052,2.47-3.952,2.47-3.99l-0.038-0.037
			c-0.038,0-2.09,0.075-3.609,0.075h-11.74v-2.925H576.847z"/>
	</g>
</g>
</svg>
